<?xml version="1.0" encoding="UTF-8"?>
<!DOCTYPE svg PUBLIC "-//W3C//DTD SVG 1.1//EN" "http://www.w3.org/Graphics/SVG/1.1/DTD/svg11.dtd">
<!-- Creator: CorelDRAW X7 -->
<svg xmlns="http://www.w3.org/2000/svg" xml:space="preserve" width="21cm" height="21cm" version="1.1" style="shape-rendering:geometricPrecision; text-rendering:geometricPrecision; image-rendering:optimizeQuality; fill-rule:evenodd; clip-rule:evenodd"
viewBox="0 0 2069 2069"
 xmlns:xlink="http://www.w3.org/1999/xlink">
 <defs>
  <style type="text/css">
   <![CDATA[
    .fil2 {fill:#4D4D4D}
    .fil0 {fill:#FFAA00}
    .fil1 {fill:white}
   ]]>
  </style>
 </defs>
 <g id="Layer_x0020_1">
  <metadata id="CorelCorpID_0Corel-Layer"/>
  <g id="_2227055852992">
   <circle class="fil0" cx="1035" cy="1035" r="812"/>
   <path class="fil1" d="M1758 1456c-36,59 -78,112 -127,159l-308 0 -282 0 -281 0 -281 0 20 -44 20 -45 20 -45 20 -45 0 0 0 0 0 0 0 0 2 -5 2 -4 2 -5 2 -5 7 -15 6 -14 7 -14 6 -14 0 0 0 0 0 0 0 0 17 -38c32,-71 63,-142 95,-214l45 -101 46 -101 45 -101 52 0 53 0 53 0 53 0 -38 85 -179 57 -54 120 179 -57 -25 57 -169 54 -54 120 169 -54 -74 167 -16 34 -15 34 -15 34 242 0 243 0 242 0 270 0zm-1427 -843c36,-58 78,-112 127,-159l289 0 281 0 281 0 282 0 -20 45 -20 44 -20 45 -20 45 0 0 0 0 0 0 0 0 -3 5 -2 5 -2 5 -2 4 -7 15 -6 14 -6 14 -7 15 0 0 0 0 0 0 0 0 -17 37 -16 38 -17 37 -17 38 -45 101 -45 101 -45 101 -45 101 -53 0 -53 0 -53 0 -52 0 63 -141 187 -60 55 -120 -189 60 26 -57 178 -57 54 -119 -179 57 16 -37 18 -41 0 0 0 0 0 0 0 0 16 -34 15 -34 15 -34 15 -34 -242 0 -242 0 -243 0 -250 0z"/>
   <path class="fil1" d="M1035 115c507,0 919,412 919,920 0,507 -412,919 -919,919 -508,0 -920,-412 -920,-919 0,-508 412,-920 920,-920zm0 107c448,0 812,364 812,813 0,448 -364,812 -812,812 -449,0 -813,-364 -813,-812 0,-449 364,-813 813,-813z"/>
   <path class="fil2" d="M1035 0c571,0 1034,463 1034,1035 0,571 -463,1034 -1034,1034 -572,0 -1035,-463 -1035,-1034 0,-572 463,-1035 1035,-1035zm0 120c505,0 914,410 914,915 0,505 -409,914 -914,914 -505,0 -915,-409 -915,-914 0,-505 410,-915 915,-915z"/>
  </g>
 </g>
</svg>
