<?xml version="1.0" encoding="UTF-8"?>
<!DOCTYPE svg PUBLIC "-//W3C//DTD SVG 1.1//EN" "http://www.w3.org/Graphics/SVG/1.1/DTD/svg11.dtd">
<!-- Creator: CorelDRAW X7 -->
<svg xmlns="http://www.w3.org/2000/svg" xml:space="preserve" width="23.4076cm" height="23.4076cm" version="1.1" style="shape-rendering:geometricPrecision; text-rendering:geometricPrecision; image-rendering:optimizeQuality; fill-rule:evenodd; clip-rule:evenodd"
viewBox="0 0 3708 3708"
 xmlns:xlink="http://www.w3.org/1999/xlink">
 <defs>
  <style type="text/css">
   <![CDATA[
    .fil2 {fill:#4D4D4D}
    .fil0 {fill:#FFAA00}
    .fil1 {fill:white}
   ]]>
  </style>
 </defs>
 <g id="Layer_x0020_1">
  <metadata id="CorelCorpID_0Corel-Layer"/>
  <g id="_2227170848688">
   <circle class="fil0" cx="1854" cy="1854" r="1455"/>
   <path class="fil1" d="M3150 2610c-63,104 -140,200 -227,285l-553 0 -504 0 -504 0 -504 0 36 -80 35 -80 36 -81 36 -80 0 0 0 0 0 0 0 0 4 -9 4 -8 4 -9 4 -9 11 -26 12 -25 11 -26 12 -25 0 0 0 0 0 0 0 0 30 -68c57,-127 114,-255 171,-383l81 -181 81 -181 81 -181 94 0 95 0 94 0 95 0 -68 152 -320 102 -97 215 321 -102 -46 102 -302 97 -97 214 304 -96 -134 300 -28 61 -27 61 -27 61 434 0 434 0 435 0 483 0zm-2556 -1511c63,-105 140,-201 227,-286l517 0 504 0 505 0 504 0 -36 80 -36 81 -36 80 -36 80 0 0 0 0 0 0 0 0 -4 9 -4 9 -4 9 -3 8 -12 26 -11 26 -12 25 -11 26 0 0 0 0 0 0 0 0 -30 67 -30 67 -30 68 -31 67 -80 181 -81 181 -81 181 -81 181 -95 0 -94 0 -95 0 -94 0 113 -252 336 -108 97 -214 -338 107 46 -102 319 -102 97 -215 -320 103 29 -66 33 -73 0 0 0 0 0 0 0 0 27 -61 27 -61 27 -61 28 -61 -435 0 -434 0 -434 0 -448 0z"/>
   <path class="fil1" d="M1854 206c910,0 1648,738 1648,1648 0,910 -738,1648 -1648,1648 -910,0 -1648,-738 -1648,-1648 0,-910 738,-1648 1648,-1648zm0 192c805,0 1457,652 1457,1456 0,805 -652,1457 -1457,1457 -804,0 -1456,-652 -1456,-1457 0,-804 652,-1456 1456,-1456z"/>
   <path class="fil2" d="M1854 0c1024,0 1854,830 1854,1854 0,1024 -830,1854 -1854,1854 -1024,0 -1854,-830 -1854,-1854 0,-1024 830,-1854 1854,-1854zm0 215c905,0 1639,734 1639,1639 0,905 -734,1639 -1639,1639 -905,0 -1639,-734 -1639,-1639 0,-905 734,-1639 1639,-1639z"/>
  </g>
 </g>
</svg>
