<?xml version="1.0" encoding="UTF-8"?>
<!DOCTYPE svg PUBLIC "-//W3C//DTD SVG 1.1//EN" "http://www.w3.org/Graphics/SVG/1.1/DTD/svg11.dtd">
<!-- Creator: CorelDRAW X7 -->
<svg xmlns="http://www.w3.org/2000/svg" xml:space="preserve" width="23.4076cm" height="23.4076cm" version="1.1" style="shape-rendering:geometricPrecision; text-rendering:geometricPrecision; image-rendering:optimizeQuality; fill-rule:evenodd; clip-rule:evenodd"
viewBox="0 0 2892 2892"
 xmlns:xlink="http://www.w3.org/1999/xlink">
 <defs>
  <style type="text/css">
   <![CDATA[
    .fil2 {fill:#4D4D4D}
    .fil0 {fill:#FFAA00}
    .fil1 {fill:white}
   ]]>
  </style>
 </defs>
 <g id="Layer_x0020_1">
  <metadata id="CorelCorpID_0Corel-Layer"/>
  <g id="_2227131665904">
   <circle class="fil0" cx="1446" cy="1446" r="1135"/>
   <path class="fil1" d="M2457 2036c-50,81 -109,156 -177,222l-431 0 -394 0 -393 0 -393 0 28 -62 28 -63 28 -63 28 -62 0 0 0 0 0 0 0 0 3 -7 3 -7 3 -7 3 -7 9 -20 9 -20 9 -20 9 -20 0 0 0 0 0 0 0 0 23 -52c45,-100 89,-199 134,-299l63 -141 63 -141 63 -141 74 0 73 0 74 0 74 0 -53 118 -249 80 -76 167 250 -79 -35 79 -236 76 -76 167 237 -75 -104 234 -22 47 -21 48 -21 48 338 0 339 0 339 0 377 0zm-1994 -1179c50,-82 109,-156 177,-223l404 0 393 0 393 0 393 0 -28 63 -28 62 -28 63 -27 63 0 0 0 0 0 0 0 0 -4 6 -3 7 -3 7 -3 7 -9 20 -9 20 -9 20 -8 20 0 0 0 0 0 0 0 0 -24 52 -23 53 -24 52 -23 53 -63 141 -64 141 -63 142 -63 141 -73 0 -74 0 -74 0 -73 0 87 -197 263 -84 76 -167 -264 84 36 -80 249 -80 75 -167 -250 80 23 -52 26 -57 0 0 0 0 0 0 0 0 21 -47 21 -48 21 -47 22 -48 -339 0 -339 0 -338 0 -350 0z"/>
   <path class="fil1" d="M1446 161c710,0 1286,575 1286,1285 0,710 -576,1286 -1286,1286 -710,0 -1285,-576 -1285,-1286 0,-710 575,-1285 1285,-1285zm0 149c628,0 1136,509 1136,1136 0,628 -508,1136 -1136,1136 -627,0 -1136,-508 -1136,-1136 0,-627 509,-1136 1136,-1136z"/>
   <path class="fil2" d="M1446 0c799,0 1446,647 1446,1446 0,799 -647,1446 -1446,1446 -799,0 -1446,-647 -1446,-1446 0,-799 647,-1446 1446,-1446zm0 168c706,0 1278,572 1278,1278 0,706 -572,1278 -1278,1278 -706,0 -1278,-572 -1278,-1278 0,-706 572,-1278 1278,-1278z"/>
  </g>
 </g>
</svg>
